<?xml version="1.0" standalone="no"?>
<!DOCTYPE svg PUBLIC "-//W3C//DTD SVG 20010904//EN"
 "http://www.w3.org/TR/2001/REC-SVG-20010904/DTD/svg10.dtd">
<svg version="1.0" xmlns="http://www.w3.org/2000/svg"
 width="512.000000pt" height="512.000000pt" viewBox="0 0 512.000000 512.000000"
 preserveAspectRatio="xMidYMid meet">
<metadata>
Created by potrace 1.14, written by Peter Selinger 2001-2017
</metadata>
<g transform="translate(0.000000,512.000000) scale(0.100000,-0.100000)"
fill="#000000" stroke="none">
<path d="M1955 4730 c-297 -60 -492 -337 -441 -627 46 -263 269 -453 533 -453
150 0 261 42 365 138 193 179 237 434 115 667 -103 195 -358 318 -572 275z"/>
<path d="M4127 3848 c-22 -17 -195 -1033 -180 -1057 6 -9 24 -16 43 -16 27 0
35 5 40 25 4 14 44 251 91 527 55 332 81 505 74 511 -19 18 -51 22 -68 10z"/>
<path d="M1590 3651 c-58 -18 -109 -54 -176 -123 -309 -318 -486 -789 -487
-1293 -1 -138 2 -168 20 -216 55 -147 159 -246 306 -291 59 -18 81 -19 155
-12 48 4 246 8 440 8 l352 1 0 251 0 252 -22 5 c-13 3 -88 11 -168 17 -195 16
-187 14 -199 58 -48 176 -39 468 19 636 11 33 19 60 18 62 -2 1 -37 22 -78 47
-132 80 -242 175 -272 236 -39 75 -38 149 0 222 73 140 251 168 376 58 26 -23
49 -39 52 -36 11 11 -91 88 -142 107 -56 20 -145 25 -194 11z"/>
<path d="M1625 3586 c-109 -48 -153 -184 -93 -286 70 -119 399 -319 690 -419
184 -63 481 -121 618 -121 l49 0 -6 -33 c-3 -22 0 -37 10 -45 11 -9 141 -12
548 -10 l534 3 3 28 c7 58 15 57 -412 57 l-391 0 46 40 c81 69 99 156 53 248
-19 39 -38 59 -72 80 -45 26 -55 27 -227 34 -200 7 -334 25 -483 63 -243 61
-478 175 -627 305 -27 24 -64 49 -82 56 -41 18 -119 17 -158 0z"/>
<path d="M730 3129 c-13 -5 -28 -15 -32 -22 -4 -7 -8 -191 -8 -409 l0 -397 25
-19 25 -20 0 -286 0 -286 -23 0 c-31 0 -47 -18 -47 -51 0 -57 13 -59 357 -59
l313 0 0 -383 0 -383 -287 -85 -288 -84 -3 -29 c-2 -16 2 -39 8 -51 9 -17 9
-28 1 -43 -18 -34 -13 -79 13 -109 19 -22 32 -28 66 -28 81 0 119 89 65 153
-23 28 -24 31 -8 35 10 3 112 26 228 52 116 25 218 50 228 55 11 7 23 7 35 0
9 -5 91 -25 182 -45 91 -20 196 -43 233 -51 l68 -16 -25 -23 c-49 -46 -42
-121 15 -150 43 -23 68 -18 105 19 38 38 43 69 18 105 -12 17 -13 26 -5 34 18
18 14 85 -6 95 -10 5 -132 42 -270 82 l-253 73 0 389 0 388 298 0 c323 0 342
3 342 55 0 57 25 55 -661 55 l-629 0 0 290 c0 279 1 290 20 300 19 10 20 21
20 419 0 339 -2 411 -14 420 -20 17 -77 22 -106 10z"/>
<path d="M2080 2601 c-15 -29 -12 -93 6 -119 13 -19 24 -22 85 -22 l69 0 2
-1022 3 -1023 55 0 55 0 3 913 2 912 1050 0 1050 0 2 -912 3 -913 50 -3 c38
-3 52 1 62 14 10 14 13 221 13 1026 l0 1008 76 0 c104 0 114 7 114 78 0 32 -5
63 -12 70 -9 9 -321 12 -1345 12 -1307 0 -1332 0 -1343 -19z"/>
<path d="M2400 1361 l0 -837 34 -17 c110 -52 232 -12 286 94 59 115 106 988
65 1214 -36 204 -125 305 -324 365 l-61 18 0 -837z"/>
</g>
</svg>
